<mxfile host="Electron" modified="2023-04-26T15:09:57.647Z" agent="Mozilla/5.0 (Windows NT 10.0; Win64; x64) AppleWebKit/537.36 (KHTML, like Gecko) draw.io/21.2.1 Chrome/112.0.5615.87 Electron/24.1.2 Safari/537.36" etag="aMyUoQh-UnFChSWRogj8" version="21.2.1" type="device">
  <diagram name="Seite-1" id="AzLif5zmj7xQGNPnm5Tj">
    <mxGraphModel dx="2058" dy="1188" grid="1" gridSize="10" guides="1" tooltips="1" connect="1" arrows="1" fold="1" page="1" pageScale="1" pageWidth="827" pageHeight="1169" math="0" shadow="0">
      <root>
        <mxCell id="0" />
        <mxCell id="1" parent="0" />
        <mxCell id="6fFHtydixijwXSXBRRbv-1" value="Beastopia&amp;nbsp;- Main Menu" style="strokeWidth=1;shadow=0;dashed=0;align=center;html=1;shape=mxgraph.mockup.containers.window;align=left;verticalAlign=top;spacingLeft=8;strokeColor2=#008cff;strokeColor3=#c4c4c4;fontColor=#666666;mainText=;fontSize=17;labelBackgroundColor=none;whiteSpace=wrap;" parent="1" vertex="1">
          <mxGeometry x="80" y="20" width="663" height="500" as="geometry" />
        </mxCell>
        <mxCell id="6fFHtydixijwXSXBRRbv-9" value="" style="verticalLabelPosition=bottom;shadow=0;dashed=0;align=center;html=1;verticalAlign=top;strokeWidth=1;shape=mxgraph.mockup.graphics.simpleIcon;strokeColor=#999999;" parent="1" vertex="1">
          <mxGeometry x="80" y="51" width="663" height="469" as="geometry" />
        </mxCell>
        <mxCell id="6fFHtydixijwXSXBRRbv-10" value="&lt;p style=&quot;line-height: 20%;&quot;&gt;&lt;br&gt;&lt;/p&gt;" style="strokeWidth=1;shadow=0;dashed=0;align=center;html=1;shape=mxgraph.mockup.text.textBox;fontColor=#666666;align=left;fontSize=17;spacingLeft=4;spacingTop=-3;whiteSpace=wrap;strokeColor=#666666;mainText=" parent="1" vertex="1">
          <mxGeometry x="481" y="130.25" width="210" height="320.25" as="geometry" />
        </mxCell>
        <mxCell id="6fFHtydixijwXSXBRRbv-11" value="" style="verticalLabelPosition=bottom;shadow=0;dashed=0;align=center;html=1;verticalAlign=top;strokeWidth=1;shape=mxgraph.mockup.navigation.scrollBar;strokeColor=#999999;barPos=100;fillColor2=#99ddff;strokeColor2=none;direction=north;" parent="1" vertex="1">
          <mxGeometry x="671" y="160" width="20" height="250" as="geometry" />
        </mxCell>
        <mxCell id="6fFHtydixijwXSXBRRbv-12" value="&lt;font style=&quot;font-size: 14px;&quot;&gt;Search User...&lt;/font&gt;" style="strokeWidth=1;shadow=0;dashed=0;align=center;html=1;shape=mxgraph.mockup.forms.searchBox;strokeColor=#999999;mainText=;strokeColor2=#008cff;fontColor=#666666;fontSize=17;align=left;spacingLeft=3;whiteSpace=wrap;" parent="1" vertex="1">
          <mxGeometry x="481" y="130.75" width="209" height="30" as="geometry" />
        </mxCell>
        <mxCell id="6fFHtydixijwXSXBRRbv-58" value="" style="strokeWidth=1;shadow=0;dashed=0;align=center;html=1;shape=mxgraph.mockup.text.textBox;fontColor=#666666;align=left;fontSize=17;spacingLeft=4;spacingTop=-3;strokeColor=#666666;mainText=;whiteSpace=wrap;" parent="1" vertex="1">
          <mxGeometry x="481" y="100.25" width="210" height="30" as="geometry" />
        </mxCell>
        <mxCell id="6fFHtydixijwXSXBRRbv-59" value="" style="rounded=0;whiteSpace=wrap;html=1;strokeColor=#666666;" parent="1" vertex="1">
          <mxGeometry x="481" y="160.75" width="190" height="60" as="geometry" />
        </mxCell>
        <mxCell id="6fFHtydixijwXSXBRRbv-60" value="&lt;p style=&quot;line-height: 120%;&quot;&gt;&lt;span style=&quot;font-size: 14px;&quot;&gt;Bob&lt;/span&gt;&lt;/p&gt;" style="text;html=1;strokeColor=none;fillColor=none;align=left;verticalAlign=middle;whiteSpace=wrap;rounded=0;" parent="1" vertex="1">
          <mxGeometry x="544" y="169.75" width="98" height="12.5" as="geometry" />
        </mxCell>
        <mxCell id="6fFHtydixijwXSXBRRbv-62" value="" style="html=1;verticalLabelPosition=bottom;align=center;labelBackgroundColor=#ffffff;verticalAlign=top;strokeWidth=2;shadow=0;dashed=0;shape=mxgraph.ios7.icons.mail;fillColor=#fff2cc;strokeColor=#d6b656;" parent="1" vertex="1">
          <mxGeometry x="582" y="193.25" width="20" height="15" as="geometry" />
        </mxCell>
        <mxCell id="6fFHtydixijwXSXBRRbv-63" value="" style="verticalLabelPosition=bottom;shadow=0;dashed=0;align=center;html=1;verticalAlign=top;strokeWidth=1;shape=mxgraph.mockup.containers.userMale;strokeColor=#666666;strokeColor2=#008cff;" parent="1" vertex="1">
          <mxGeometry x="489" y="169.75" width="44" height="42" as="geometry" />
        </mxCell>
        <mxCell id="6fFHtydixijwXSXBRRbv-64" value="" style="ellipse;whiteSpace=wrap;html=1;aspect=fixed;fillColor=#60a917;fontColor=#ffffff;strokeColor=#2D7600;" parent="1" vertex="1">
          <mxGeometry x="523" y="201.75" width="10" height="10" as="geometry" />
        </mxCell>
        <mxCell id="6fFHtydixijwXSXBRRbv-69" value="" style="html=1;verticalLabelPosition=bottom;align=center;labelBackgroundColor=#ffffff;verticalAlign=top;strokeWidth=2;strokeColor=#B20000;shadow=0;dashed=0;shape=mxgraph.ios7.icons.delete;fillColor=#FF9999;fontColor=#ffffff;" parent="1" vertex="1">
          <mxGeometry x="547" y="190.75" width="20" height="20" as="geometry" />
        </mxCell>
        <mxCell id="6fFHtydixijwXSXBRRbv-119" value="" style="rounded=1;whiteSpace=wrap;html=1;arcSize=7;strokeColor=#666666;" parent="1" vertex="1">
          <mxGeometry x="132" y="100.25" width="288" height="349.25" as="geometry" />
        </mxCell>
        <mxCell id="6fFHtydixijwXSXBRRbv-120" value="" style="verticalLabelPosition=bottom;shadow=0;dashed=0;align=center;html=1;verticalAlign=top;strokeWidth=1;shape=mxgraph.mockup.containers.userMale;strokeColor=#666666;strokeColor2=#008cff;" parent="1" vertex="1">
          <mxGeometry x="160" y="159.5" width="50" height="49.25" as="geometry" />
        </mxCell>
        <mxCell id="6fFHtydixijwXSXBRRbv-121" value="&lt;p style=&quot;line-height: 120%;&quot;&gt;&lt;font style=&quot;font-size: 14px;&quot;&gt;MyUsername&lt;/font&gt;&lt;/p&gt;" style="text;html=1;strokeColor=none;fillColor=none;align=left;verticalAlign=middle;whiteSpace=wrap;rounded=0;" parent="1" vertex="1">
          <mxGeometry x="226" y="159.5" width="114" height="12.5" as="geometry" />
        </mxCell>
        <mxCell id="6fFHtydixijwXSXBRRbv-122" value="" style="html=1;verticalLabelPosition=bottom;align=center;labelBackgroundColor=#ffffff;verticalAlign=top;strokeWidth=2;strokeColor=#0080F0;shadow=0;dashed=0;shape=mxgraph.ios7.icons.edit;" parent="1" vertex="1">
          <mxGeometry x="230" y="188.35000000000002" width="20" height="19.4" as="geometry" />
        </mxCell>
        <mxCell id="6fFHtydixijwXSXBRRbv-123" value="" style="rounded=0;whiteSpace=wrap;html=1;strokeColor=#666666;" parent="1" vertex="1">
          <mxGeometry x="160" y="289.5" width="240" height="140" as="geometry" />
        </mxCell>
        <mxCell id="6fFHtydixijwXSXBRRbv-124" value="" style="rounded=1;whiteSpace=wrap;html=1;strokeColor=#666666;" parent="1" vertex="1">
          <mxGeometry x="187" y="301.5" width="170" height="30.25" as="geometry" />
        </mxCell>
        <mxCell id="6fFHtydixijwXSXBRRbv-125" value="" style="rounded=1;whiteSpace=wrap;html=1;strokeColor=#666666;" parent="1" vertex="1">
          <mxGeometry x="187" y="343.5" width="170" height="30.25" as="geometry" />
        </mxCell>
        <mxCell id="6fFHtydixijwXSXBRRbv-126" value="Example region" style="text;html=1;strokeColor=none;fillColor=none;align=center;verticalAlign=middle;whiteSpace=wrap;rounded=0;" parent="1" vertex="1">
          <mxGeometry x="217" y="301.5" width="110" height="30" as="geometry" />
        </mxCell>
        <mxCell id="6fFHtydixijwXSXBRRbv-127" value="Example region" style="text;html=1;strokeColor=none;fillColor=none;align=center;verticalAlign=middle;whiteSpace=wrap;rounded=0;" parent="1" vertex="1">
          <mxGeometry x="217" y="343.5" width="110" height="30" as="geometry" />
        </mxCell>
        <mxCell id="6fFHtydixijwXSXBRRbv-128" value="Choose a region" style="text;html=1;strokeColor=none;fillColor=none;align=center;verticalAlign=middle;whiteSpace=wrap;rounded=0;fontSize=16;" parent="1" vertex="1">
          <mxGeometry x="210" y="249.5" width="144" height="30" as="geometry" />
        </mxCell>
        <mxCell id="6fFHtydixijwXSXBRRbv-130" value="" style="verticalLabelPosition=bottom;shadow=0;dashed=0;align=center;html=1;verticalAlign=top;strokeWidth=1;shape=mxgraph.mockup.navigation.scrollBar;strokeColor=#666666;barPos=100;fillColor2=#99ddff;strokeColor2=none;direction=north;" parent="1" vertex="1">
          <mxGeometry x="380" y="289.5" width="20" height="140" as="geometry" />
        </mxCell>
        <mxCell id="6fFHtydixijwXSXBRRbv-131" value="" style="strokeWidth=1;shadow=0;dashed=0;align=center;html=1;shape=mxgraph.mockup.text.textBox;fontColor=#666666;align=left;fontSize=17;spacingLeft=4;spacingTop=-3;whiteSpace=wrap;strokeColor=#666666;mainText=" parent="1" vertex="1">
          <mxGeometry x="481" y="410" width="210" height="40" as="geometry" />
        </mxCell>
        <mxCell id="6fFHtydixijwXSXBRRbv-132" value="Friend List" style="text;html=1;strokeColor=none;fillColor=none;align=center;verticalAlign=middle;whiteSpace=wrap;rounded=0;fontSize=16;" parent="1" vertex="1">
          <mxGeometry x="513.5" y="99.75" width="144" height="30" as="geometry" />
        </mxCell>
        <mxCell id="6fFHtydixijwXSXBRRbv-133" value="Show Chats" style="text;html=1;strokeColor=none;fillColor=none;align=center;verticalAlign=middle;whiteSpace=wrap;rounded=0;fontSize=16;" parent="1" vertex="1">
          <mxGeometry x="514" y="415" width="144" height="30" as="geometry" />
        </mxCell>
        <mxCell id="6fFHtydixijwXSXBRRbv-134" value="" style="rounded=0;whiteSpace=wrap;html=1;strokeColor=#666666;" parent="1" vertex="1">
          <mxGeometry x="481" y="220.75" width="190" height="60" as="geometry" />
        </mxCell>
        <mxCell id="6fFHtydixijwXSXBRRbv-135" value="&lt;p style=&quot;line-height: 120%;&quot;&gt;&lt;span style=&quot;font-size: 14px;&quot;&gt;AnotherUser&lt;/span&gt;&lt;/p&gt;" style="text;html=1;strokeColor=none;fillColor=none;align=left;verticalAlign=middle;whiteSpace=wrap;rounded=0;" parent="1" vertex="1">
          <mxGeometry x="544" y="229.75" width="98" height="12.5" as="geometry" />
        </mxCell>
        <mxCell id="6fFHtydixijwXSXBRRbv-136" value="" style="html=1;verticalLabelPosition=bottom;align=center;labelBackgroundColor=#ffffff;verticalAlign=top;strokeWidth=2;shadow=0;dashed=0;shape=mxgraph.ios7.icons.mail;fillColor=#fff2cc;strokeColor=#d6b656;" parent="1" vertex="1">
          <mxGeometry x="582" y="253.25" width="20" height="15" as="geometry" />
        </mxCell>
        <mxCell id="6fFHtydixijwXSXBRRbv-137" value="" style="verticalLabelPosition=bottom;shadow=0;dashed=0;align=center;html=1;verticalAlign=top;strokeWidth=1;shape=mxgraph.mockup.containers.userMale;strokeColor=#666666;strokeColor2=#008cff;" parent="1" vertex="1">
          <mxGeometry x="489" y="229.75" width="44" height="42" as="geometry" />
        </mxCell>
        <mxCell id="6fFHtydixijwXSXBRRbv-138" value="" style="ellipse;whiteSpace=wrap;html=1;aspect=fixed;fillColor=#60a917;fontColor=#ffffff;strokeColor=#2D7600;" parent="1" vertex="1">
          <mxGeometry x="523" y="261.75" width="10" height="10" as="geometry" />
        </mxCell>
        <mxCell id="6fFHtydixijwXSXBRRbv-139" value="" style="html=1;verticalLabelPosition=bottom;align=center;labelBackgroundColor=#ffffff;verticalAlign=top;strokeWidth=2;strokeColor=#B20000;shadow=0;dashed=0;shape=mxgraph.ios7.icons.delete;fillColor=#FF9999;fontColor=#ffffff;" parent="1" vertex="1">
          <mxGeometry x="547" y="250.75" width="20" height="20" as="geometry" />
        </mxCell>
        <mxCell id="RcxZKXjf2XWzFjacxIuy-1" value="" style="sketch=0;pointerEvents=1;shadow=0;dashed=0;html=1;labelPosition=center;verticalLabelPosition=bottom;verticalAlign=top;outlineConnect=0;align=center;shape=mxgraph.office.concepts.pin;fillColor=#000000;" parent="1" vertex="1">
          <mxGeometry x="620" y="193.25" width="12.5" height="16" as="geometry" />
        </mxCell>
        <mxCell id="RcxZKXjf2XWzFjacxIuy-2" value="" style="sketch=0;pointerEvents=1;shadow=0;dashed=0;html=1;labelPosition=center;verticalLabelPosition=bottom;verticalAlign=top;outlineConnect=0;align=center;shape=mxgraph.office.concepts.pin;" parent="1" vertex="1">
          <mxGeometry x="620" y="252.75" width="12.5" height="16" as="geometry" />
        </mxCell>
        <mxCell id="lqgO1k-WO09Qt627VnNq-1" value="" style="verticalLabelPosition=bottom;shadow=0;dashed=0;align=center;html=1;verticalAlign=top;strokeWidth=1;shape=mxgraph.mockup.graphics.simpleIcon;strokeColor=#999999;" parent="1" vertex="1">
          <mxGeometry x="160" y="110" width="240" height="40" as="geometry" />
        </mxCell>
      </root>
    </mxGraphModel>
  </diagram>
</mxfile>
